<svg width="110" height="24" viewBox="0 0 110 24" fill="none" xmlns="http://www.w3.org/2000/svg">
<path d="M10.1719 8.09375L14.4375 0.25H19.8281L13.2031 11.5312L20 23H14.5469L10.1719 15.0312L5.79688 23H0.34375L7.14062 11.5312L0.515625 0.25H5.90625L10.1719 8.09375ZM28.5 0.25L34.3438 16.75L40.1562 0.25H46.3125V23H41.6094V16.7812L42.0781 6.04688L35.9375 23H32.7188L26.5938 6.0625L27.0625 16.7812V23H22.375V0.25H28.5ZM57.8906 23.3125C55.4115 23.3125 53.3906 22.5521 51.8281 21.0312C50.276 19.5104 49.5 17.4844 49.5 14.9531V14.5156C49.5 12.8177 49.8281 11.3021 50.4844 9.96875C51.1406 8.625 52.0677 7.59375 53.2656 6.875C54.474 6.14583 55.849 5.78125 57.3906 5.78125C59.7031 5.78125 61.5208 6.51042 62.8438 7.96875C64.1771 9.42708 64.8438 11.4948 64.8438 14.1719V16.0156H54.0781C54.224 17.1198 54.6615 18.0052 55.3906 18.6719C56.1302 19.3385 57.0625 19.6719 58.1875 19.6719C59.9271 19.6719 61.2865 19.0417 62.2656 17.7812L64.4844 20.2656C63.8073 21.224 62.8906 21.974 61.7344 22.5156C60.5781 23.0469 59.2969 23.3125 57.8906 23.3125ZM57.375 9.4375C56.4792 9.4375 55.75 9.73958 55.1875 10.3438C54.6354 10.9479 54.2812 11.8125 54.125 12.9375H60.4062V12.5781C60.3854 11.5781 60.1146 10.8073 59.5938 10.2656C59.0729 9.71354 58.3333 9.4375 57.375 9.4375ZM102.922 23.3125C100.443 23.3125 98.4219 22.5521 96.8594 21.0312C95.3073 19.5104 94.5312 17.4844 94.5312 14.9531V14.5156C94.5312 12.8177 94.8594 11.3021 95.5156 9.96875C96.1719 8.625 97.099 7.59375 98.2969 6.875C99.5052 6.14583 100.88 5.78125 102.422 5.78125C104.734 5.78125 106.552 6.51042 107.875 7.96875C109.208 9.42708 109.875 11.4948 109.875 14.1719V16.0156H99.1094C99.2552 17.1198 99.6927 18.0052 100.422 18.6719C101.161 19.3385 102.094 19.6719 103.219 19.6719C104.958 19.6719 106.318 19.0417 107.297 17.7812L109.516 20.2656C108.839 21.224 107.922 21.974 106.766 22.5156C105.609 23.0469 104.328 23.3125 102.922 23.3125ZM102.406 9.4375C101.51 9.4375 100.781 9.73958 100.219 10.3438C99.6667 10.9479 99.3125 11.8125 99.1562 12.9375H105.438V12.5781C105.417 11.5781 105.146 10.8073 104.625 10.2656C104.104 9.71354 103.365 9.4375 102.406 9.4375Z" fill="#0A66C2"/>
<path d="M71.6562 6.09375L71.7969 7.98438C72.9948 6.51562 74.6146 5.78125 76.6562 5.78125C78.8333 5.78125 80.3281 6.64062 81.1406 8.35938C82.3281 6.64062 84.0208 5.78125 86.2188 5.78125C88.0521 5.78125 89.4167 6.31771 90.3125 7.39062C91.2083 8.45312 91.6562 10.0573 91.6562 12.2031V23H87.125V12.2188C87.125 11.2604 86.9375 10.5625 86.5625 10.125C86.1875 9.67708 85.526 9.45312 84.5781 9.45312C83.224 9.45312 82.2865 10.099 81.7656 11.3906L81.7812 23H77.2656V12.2344C77.2656 11.2552 77.0729 10.5469 76.6875 10.1094C76.3021 9.67188 75.6458 9.45312 74.7188 9.45312C73.4375 9.45312 72.5104 9.98438 71.9375 11.0469V23H67.4219V6.09375H71.6562Z" fill="#C2360A"/>
</svg>
